<?xml version="1.0" encoding="utf-8"?>
<!-- Generator: Adobe Illustrator 23.0.1, SVG Export Plug-In . SVG Version: 6.00 Build 0)  -->
<svg version="1.1" id="Layer_1" xmlns="http://www.w3.org/2000/svg" xmlns:xlink="http://www.w3.org/1999/xlink" x="0px" y="0px"
	 viewBox="0 0 100.1 99.8" style="enable-background:new 0 0 100.1 99.8;" xml:space="preserve">
<style type="text/css">
	.st0{fill:url(#SVGID_1_);}
</style>
<g>
	
		<radialGradient id="SVGID_1_" cx="38.6208" cy="68.9435" r="62.4237" gradientTransform="matrix(1 0 0 -1 0 101.6352)" gradientUnits="userSpaceOnUse">
		<stop  offset="0.1218" style="stop-color:#FF7500"/>
		<stop  offset="0.3444" style="stop-color:#FC7301"/>
		<stop  offset="0.533" style="stop-color:#F16E02"/>
		<stop  offset="0.7093" style="stop-color:#E06605"/>
		<stop  offset="0.877" style="stop-color:#C75A09"/>
		<stop  offset="1" style="stop-color:#B04F0D"/>
	</radialGradient>
	<circle class="st0" cx="49.9" cy="49.9" r="49.9"/>
</g>
<g id="Layer_3">
	<path d="M14.5,58.4c0-50.6,28.4-58.1,29-58.1l0,0l0,0L46.9,0c0,0-4.9,1.6-7.5,3.1l0,0c-2.6,1.6-6,4.1-9.5,8.3l0,0
		C23,19.6,16.2,34,16.2,58.8l0,0c0,18.3,9.2,30.1,13.9,34.9l0,0c1.6,1.6,5.8,4.1,5.8,4.1l0,0L30.7,96C30.6,95.9,14.5,85.1,14.5,58.4
		L14.5,58.4z"/>
</g>
<g id="Layer_4">
	<path d="M15.3,47.4C6,46.3,4.6,39.1,4.6,33.7l0-2.5c0-2.3,0.1-2.6,0.1-2.6l1.4-2.7c0,0-0.5,2.7-0.5,5.3l0,0
		c0,5.4,1.2,12.7,9.7,13.6l0,0c1,0.1,1.9,0.2,2.8,0.2l0,0c6.2-0.5,14.5-5,24.6-12.8l0,0c10.1-7.7,26.9-17.7,39.6-17.8l0,0
		c1.1,0,2.2,0.3,3,0.6l0,0l1.4,1.5c-0.6-0.3-2.7-0.4-3.7-0.4l0,0c-8.8,0-28.9,10.7-38.8,18.3l0,0c-10.1,7.8-16.8,13.2-26.2,13.2l0,0
		C17.3,47.5,16.3,47.5,15.3,47.4L15.3,47.4z"/>
	<path d="M55.3,90.2c-5.9-1.6-13.1-5.9-20.1-9.3l0,0c-6.8-3.3-13.8-5.7-19.3-6.6l0,0c-0.8-0.1-1.5-0.1-2.1-0.1l0,0
		c-3.8,0-5.3,1.6-5.7,2.2l0,0c-0.1,0.2-0.3,0.4-0.3,0.4l-0.7-1c0.1-0.2,1.1-3.9,6.6-3.8l0,0c0.7,0,1.4,0,2.2,0.1l0,0
		c6.7,0.8,13.2,3.7,20,7l0,0c7.1,3.4,14,7.7,19.7,9.2l0,0c5.7,1.6,7.2,2.4,11.4,2.4l0,0c8,0,13.8-1.7,13.8-1.7l0,0l-1,0.7
		c0,0-6.7,2.5-12.9,2.3l0,0C62.8,92,61,91.8,55.3,90.2L55.3,90.2z"/>
</g>
<g id="Layer_5">
	<path d="M15.3,62c-3-0.4-7.6-1.6-11.3-3l0,0c-3.7-1.4-3.5-2.1-3.5-2.1s-0.3-1.3-0.4-3.8c0,0,1.1,1.1,1.9,1.5l0,0
		c0.5,0.4,1.7,1,3.3,1.6l-0.2-0.1c3.4,1.3,8,2.4,10.6,2.8l0,0c4.7,0.7,12.5,1.2,22.5,1.2l0,0c1.1,0,2.2,0,3.3,0l0,0
		c11.6-0.1,29.5-1.6,40.5-4.3l0,0c9.7-2.3,15.1-5.5,16.1-6.1l0,0c0.1-0.1,1.6-0.8,1.6-0.8l0,0c0.5-0.2,0.4,3-0.1,3.3l0,0
		c-0.2,0.1-5.4,3.8-16.9,6.6l0,0c-11.5,2.8-29.4,4.2-41.2,4.4l0,0c-1.1,0-2.2,0-3.3,0l0,0C28.1,63.2,20.3,62.7,15.3,62L15.3,62z"/>
</g>
</svg>
