<?xml version="1.0" encoding="utf-8"?>
<!-- Generator: Adobe Illustrator 21.0.0, SVG Export Plug-In . SVG Version: 6.00 Build 0)  -->
<svg version="1.1" id="Layer_1" xmlns="http://www.w3.org/2000/svg" xmlns:xlink="http://www.w3.org/1999/xlink" x="0px" y="0px"
	 viewBox="0 0 580 70" style="enable-background:new 0 0 580 70;" xml:space="preserve">
<style type="text/css">
	.st0{fill:#E1E1E1;}
</style>
<g>
	<path class="st0" d="M49.9,44v-3.3h8.8V18.2h-6.9v-2.5c1.8-0.3,3.3-0.6,4.6-0.9c1.2-0.4,2.3-0.8,3.3-1.3h2.9v27.4h8v3.3H49.9V44z"
		/>
	<path class="st0" d="M78.7,44v-3.3h8.8V18.2h-6.9v-2.5c1.8-0.3,3.3-0.6,4.6-0.9c1.2-0.4,2.3-0.8,3.3-1.3h2.9v27.4h8v3.3H78.7V44z"
		/>
	<path class="st0" d="M117.2,44.6c-3.4,0-6.1-1.4-8.1-4.2s-2.9-6.7-2.9-11.8c0-5.2,1-9.1,2.9-11.8c2-2.7,4.6-4,8.1-4
		c3.4,0,6.1,1.3,8.1,4s2.9,6.6,2.9,11.8c0,5.1-1,9.1-2.9,11.8C123.3,43.2,120.6,44.6,117.2,44.6z M117.2,41.4c2.1,0,3.9-1,5.3-3.1
		s2-5.3,2-9.7c0-2.2-0.2-4.1-0.5-5.7c-0.4-1.6-0.9-2.9-1.5-3.9c-0.7-1-1.4-1.8-2.3-2.3c-1-0.5-1.9-0.7-3-0.7s-2,0.2-2.9,0.7
		s-1.7,1.2-2.3,2.3c-0.7,1-1.2,2.4-1.5,3.9c-0.4,1.6-0.5,3.5-0.5,5.7c0,4.4,0.7,7.6,2,9.7C113.3,40.4,115.1,41.4,117.2,41.4z
		 M117.2,31.5c-0.8,0-1.5-0.3-2.1-0.8c-0.6-0.6-0.9-1.4-0.9-2.4s0.3-1.8,0.9-2.3c0.6-0.6,1.3-0.8,2.1-0.8c0.8,0,1.5,0.3,2.1,0.8
		c0.6,0.6,0.9,1.3,0.9,2.3s-0.3,1.8-0.9,2.4C118.7,31.2,118,31.5,117.2,31.5z"/>
	<path class="st0" d="M146,44.6c-3.4,0-6.1-1.4-8.1-4.2s-2.9-6.7-2.9-11.8c0-5.2,1-9.1,2.9-11.8c2-2.7,4.6-4,8.1-4
		c3.4,0,6.1,1.3,8.1,4s2.9,6.6,2.9,11.8c0,5.1-1,9.1-2.9,11.8C152.1,43.2,149.4,44.6,146,44.6z M146,41.4c2.1,0,3.9-1,5.3-3.1
		s2-5.3,2-9.7c0-2.2-0.2-4.1-0.5-5.7c-0.4-1.6-0.9-2.9-1.5-3.9c-0.7-1-1.4-1.8-2.3-2.3s-1.9-0.7-2.9-0.7c-1.1,0-2,0.2-2.9,0.7
		s-1.7,1.2-2.3,2.3c-0.7,1-1.2,2.4-1.5,3.9c-0.4,1.6-0.5,3.5-0.5,5.7c0,4.4,0.7,7.6,2,9.7C142.1,40.4,143.9,41.4,146,41.4z
		 M146,31.5c-0.8,0-1.5-0.3-2.1-0.8c-0.6-0.6-0.9-1.4-0.9-2.4s0.3-1.8,0.9-2.3c0.6-0.6,1.3-0.8,2.1-0.8s1.5,0.3,2.1,0.8
		c0.6,0.6,0.9,1.3,0.9,2.3s-0.3,1.8-0.9,2.4C147.5,31.2,146.8,31.5,146,31.5z"/>
	<path class="st0" d="M165.1,44v-3.3h8.8V18.2H167v-2.5c1.8-0.3,3.3-0.6,4.6-0.9c1.2-0.4,2.3-0.8,3.3-1.3h2.9v27.4h8v3.3h-20.7V44z"
		/>
	<path class="st0" d="M193.9,44v-3.3h8.8V18.2h-6.9v-2.5c1.8-0.3,3.3-0.6,4.6-0.9c1.2-0.4,2.3-0.8,3.3-1.3h2.9v27.4h8v3.3h-20.7
		L193.9,44L193.9,44z"/>
	<path class="st0" d="M222.7,44v-3.3h8.8V18.2h-6.9v-2.5c1.8-0.3,3.3-0.6,4.6-0.9c1.2-0.4,2.3-0.8,3.3-1.3h2.9v27.4h8v3.3h-20.7
		L222.7,44L222.7,44z"/>
	<path class="st0" d="M261.2,44.6c-3.4,0-6.1-1.4-8.1-4.2s-2.9-6.7-2.9-11.8c0-5.2,1-9.1,2.9-11.8c2-2.7,4.6-4,8.1-4
		c3.4,0,6.1,1.3,8.1,4s2.9,6.6,2.9,11.8c0,5.1-1,9.1-2.9,11.8C267.3,43.2,264.6,44.6,261.2,44.6z M261.2,41.4c2.1,0,3.9-1,5.3-3.1
		s2-5.3,2-9.7c0-2.2-0.2-4.1-0.5-5.7c-0.4-1.6-0.9-2.9-1.5-3.9c-0.7-1-1.4-1.8-2.3-2.3s-1.9-0.7-2.9-0.7c-1.1,0-2,0.2-2.9,0.7
		s-1.7,1.2-2.3,2.3c-0.7,1-1.2,2.4-1.5,3.9c-0.4,1.6-0.5,3.5-0.5,5.7c0,4.4,0.7,7.6,2,9.7C257.3,40.4,259.1,41.4,261.2,41.4z
		 M261.2,31.5c-0.8,0-1.5-0.3-2.1-0.8c-0.6-0.6-0.9-1.4-0.9-2.4s0.3-1.8,0.9-2.3c0.6-0.6,1.3-0.8,2.1-0.8c0.8,0,1.5,0.3,2.1,0.8
		c0.6,0.6,0.9,1.3,0.9,2.3s-0.3,1.8-0.9,2.4C262.7,31.2,262,31.5,261.2,31.5z"/>
	<path class="st0" d="M309.1,44v-3.3h8.8V18.2H311v-2.5c1.8-0.3,3.3-0.6,4.6-0.9c1.2-0.4,2.3-0.8,3.3-1.3h2.9v27.4h8v3.3h-20.7
		L309.1,44L309.1,44z"/>
	<path class="st0" d="M347.6,44.6c-3.4,0-6.1-1.4-8.1-4.2s-2.9-6.7-2.9-11.8c0-5.2,1-9.1,2.9-11.8c2-2.7,4.6-4,8.1-4
		c3.4,0,6.1,1.3,8.1,4s2.9,6.6,2.9,11.8c0,5.1-1,9.1-2.9,11.8C353.7,43.2,351,44.6,347.6,44.6z M347.6,41.4c2.1,0,3.9-1,5.3-3.1
		s2-5.3,2-9.7c0-2.2-0.2-4.1-0.5-5.7c-0.4-1.6-0.9-2.9-1.5-3.9c-0.7-1-1.4-1.8-2.3-2.3s-1.9-0.7-2.9-0.7c-1.1,0-2,0.2-2.9,0.7
		s-1.7,1.2-2.3,2.3c-0.7,1-1.2,2.4-1.5,3.9c-0.4,1.6-0.5,3.5-0.5,5.7c0,4.4,0.7,7.6,2,9.7S345.5,41.4,347.6,41.4z M347.6,31.5
		c-0.8,0-1.5-0.3-2.1-0.8c-0.6-0.6-0.9-1.4-0.9-2.4s0.3-1.8,0.9-2.3c0.6-0.6,1.3-0.8,2.1-0.8s1.5,0.3,2.1,0.8
		c0.6,0.6,0.9,1.3,0.9,2.3s-0.3,1.8-0.9,2.4C349.1,31.2,348.4,31.5,347.6,31.5z"/>
	<path class="st0" d="M376.4,44.6c-3.4,0-6.1-1.4-8.1-4.2s-2.9-6.7-2.9-11.8c0-5.2,1-9.1,2.9-11.8c2-2.7,4.6-4,8.1-4
		c3.4,0,6.1,1.3,8.1,4s2.9,6.6,2.9,11.8c0,5.1-1,9.1-2.9,11.8C382.5,43.2,379.8,44.6,376.4,44.6z M376.4,41.4c2.1,0,3.9-1,5.3-3.1
		s2-5.3,2-9.7c0-2.2-0.2-4.1-0.5-5.7c-0.4-1.6-0.9-2.9-1.5-3.9c-0.7-1-1.4-1.8-2.3-2.3s-1.9-0.7-2.9-0.7c-1.1,0-2,0.2-2.9,0.7
		s-1.7,1.2-2.3,2.3c-0.7,1-1.2,2.4-1.5,3.9c-0.4,1.6-0.5,3.5-0.5,5.7c0,4.4,0.7,7.6,2,9.7S374.3,41.4,376.4,41.4z M376.4,31.5
		c-0.8,0-1.5-0.3-2.1-0.8c-0.6-0.6-0.9-1.4-0.9-2.4s0.3-1.8,0.9-2.3c0.6-0.6,1.3-0.8,2.1-0.8c0.8,0,1.5,0.3,2.1,0.8
		c0.6,0.6,0.9,1.3,0.9,2.3s-0.3,1.8-0.9,2.4C377.9,31.2,377.2,31.5,376.4,31.5z"/>
	<path class="st0" d="M395.5,44v-3.3h8.8V18.2h-6.9v-2.5c1.8-0.3,3.3-0.6,4.6-0.9c1.3-0.3,2.3-0.8,3.3-1.3h2.9v27.4h8v3.3h-20.7
		L395.5,44L395.5,44z"/>
	<path class="st0" d="M434,44.6c-3.4,0-6.1-1.4-8.1-4.2s-2.9-6.7-2.9-11.8c0-5.2,1-9.1,2.9-11.8c2-2.7,4.6-4,8.1-4
		c3.4,0,6.1,1.3,8.1,4s2.9,6.6,2.9,11.8c0,5.1-1,9.1-2.9,11.8C440.1,43.2,437.4,44.6,434,44.6z M434,41.4c2.1,0,3.9-1,5.3-3.1
		s2-5.3,2-9.7c0-2.2-0.2-4.1-0.5-5.7c-0.4-1.6-0.9-2.9-1.5-3.9c-0.7-1-1.4-1.8-2.3-2.3s-1.9-0.7-2.9-0.7c-1.1,0-2,0.2-2.9,0.7
		s-1.7,1.2-2.3,2.3c-0.7,1-1.2,2.4-1.5,3.9c-0.4,1.6-0.5,3.5-0.5,5.7c0,4.4,0.7,7.6,2,9.7S431.8,41.4,434,41.4z M434,31.5
		c-0.8,0-1.5-0.3-2.1-0.8c-0.6-0.6-0.9-1.4-0.9-2.4s0.3-1.8,0.9-2.3c0.6-0.6,1.3-0.8,2.1-0.8c0.8,0,1.5,0.3,2.1,0.8
		c0.6,0.6,0.9,1.3,0.9,2.3s-0.3,1.8-0.9,2.4C435.5,31.2,434.8,31.5,434,31.5z"/>
	<path class="st0" d="M453,44v-3.3h8.8V18.2h-6.9v-2.5c1.8-0.3,3.3-0.6,4.6-0.9c1.3-0.3,2.3-0.8,3.3-1.3h2.9v27.4h8v3.3H453V44z"/>
	<path class="st0" d="M491.6,44.6c-3.4,0-6.1-1.4-8.1-4.2s-2.9-6.7-2.9-11.8c0-5.2,1-9.1,2.9-11.8c2-2.7,4.6-4,8.1-4
		c3.4,0,6.1,1.3,8.1,4s2.9,6.6,2.9,11.8c0,5.1-1,9.1-2.9,11.8C497.7,43.2,495,44.6,491.6,44.6z M491.6,41.4c2.1,0,3.9-1,5.3-3.1
		s2-5.3,2-9.7c0-2.2-0.2-4.1-0.5-5.7c-0.4-1.6-0.9-2.9-1.5-3.9c-0.7-1-1.4-1.8-2.3-2.3s-1.9-0.7-2.9-0.7c-1.1,0-2,0.2-2.9,0.7
		s-1.7,1.2-2.3,2.3c-0.7,1-1.2,2.4-1.5,3.9c-0.4,1.6-0.5,3.5-0.5,5.7c0,4.4,0.7,7.6,2,9.7S489.4,41.4,491.6,41.4z M491.6,31.5
		c-0.8,0-1.5-0.3-2.1-0.8c-0.6-0.6-0.9-1.4-0.9-2.4s0.3-1.8,0.9-2.3c0.6-0.6,1.3-0.8,2.1-0.8s1.5,0.3,2.1,0.8
		c0.6,0.6,0.9,1.3,0.9,2.3s-0.3,1.8-0.9,2.4C493.1,31.2,492.4,31.5,491.6,31.5z"/>
	<path class="st0" d="M520.4,44.6c-3.4,0-6.1-1.4-8.1-4.2s-2.9-6.7-2.9-11.8c0-5.2,1-9.1,2.9-11.8c2-2.7,4.6-4,8.1-4
		c3.4,0,6.1,1.3,8.1,4s2.9,6.6,2.9,11.8c0,5.1-1,9.1-2.9,11.8C526.5,43.2,523.8,44.6,520.4,44.6z M520.4,41.4c2.1,0,3.9-1,5.3-3.1
		c1.4-2.1,2-5.3,2-9.7c0-2.2-0.2-4.1-0.5-5.7c-0.4-1.6-0.9-2.9-1.5-3.9c-0.7-1-1.4-1.8-2.3-2.3c-0.9-0.5-1.9-0.7-2.9-0.7
		c-1.1,0-2,0.2-2.9,0.7s-1.7,1.2-2.3,2.3c-0.7,1-1.2,2.4-1.5,3.9c-0.4,1.6-0.5,3.5-0.5,5.7c0,4.4,0.7,7.6,2,9.7
		S518.2,41.4,520.4,41.4z M520.4,31.5c-0.8,0-1.5-0.3-2.1-0.8c-0.6-0.6-0.9-1.4-0.9-2.4s0.3-1.8,0.9-2.3c0.6-0.6,1.3-0.8,2.1-0.8
		s1.5,0.3,2.1,0.8c0.6,0.6,0.9,1.3,0.9,2.3s-0.3,1.8-0.9,2.4C521.9,31.2,521.2,31.5,520.4,31.5z"/>
</g>
</svg>
