<?xml version="1.0" encoding="UTF-8" standalone="no"?>
<!-- Generator: Adobe Illustrator 21.0.0, SVG Export Plug-In . SVG Version: 6.00 Build 0)  -->

<svg
   xmlns:dc="http://purl.org/dc/elements/1.1/"
   xmlns:cc="http://creativecommons.org/ns#"
   xmlns:rdf="http://www.w3.org/1999/02/22-rdf-syntax-ns#"
   xmlns:svg="http://www.w3.org/2000/svg"
   xmlns="http://www.w3.org/2000/svg"
   xmlns:sodipodi="http://sodipodi.sourceforge.net/DTD/sodipodi-0.dtd"
   xmlns:inkscape="http://www.inkscape.org/namespaces/inkscape"
   version="1.1"
   id="Layer_1"
   x="0px"
   y="0px"
   viewBox="0 0 540 70"
   style="enable-background:new 0 0 540 70;"
   xml:space="preserve"
   sodipodi:docname="binary-delta - Copy.svg"
   inkscape:version="0.92.3 (2405546, 2018-03-11)"><metadata
   id="metadata3596"><rdf:RDF><cc:Work
       rdf:about=""><dc:format>image/svg+xml</dc:format><dc:type
         rdf:resource="http://purl.org/dc/dcmitype/StillImage" /></cc:Work></rdf:RDF></metadata><defs
   id="defs3594" /><sodipodi:namedview
   pagecolor="#ffffff"
   bordercolor="#666666"
   borderopacity="1"
   objecttolerance="10"
   gridtolerance="10"
   guidetolerance="10"
   inkscape:pageopacity="0"
   inkscape:pageshadow="2"
   inkscape:window-width="1920"
   inkscape:window-height="1137"
   id="namedview3592"
   showgrid="false"
   inkscape:zoom="3.3314815"
   inkscape:cx="270"
   inkscape:cy="35"
   inkscape:window-x="-8"
   inkscape:window-y="-8"
   inkscape:window-maximized="1"
   inkscape:current-layer="g3589" />
<style
   type="text/css"
   id="style3555">
	.st0{fill:#A7A7A7;}
</style>
<g
   id="g3589">
	<path
   class="st0"
   d="M29.9,44v-3.3h8.8V18.2h-6.9v-2.5c1.8-0.3,3.3-0.6,4.6-0.9c1.2-0.4,2.3-0.8,3.3-1.3h2.9v27.4h8v3.3H29.9V44z"
   id="path3557"
   style="fill:#808080" />
	<path
   class="st0"
   d="M58.7,44v-3.3h8.8V18.2h-6.9v-2.5c1.8-0.3,3.3-0.6,4.6-0.9c1.2-0.4,2.3-0.8,3.3-1.3h2.9v27.4h8v3.3H58.7V44z"
   id="path3559"
   style="fill:#808080" />
	<path
   class="st0"
   d="M97.2,44.6c-3.4,0-6.1-1.4-8.1-4.2s-2.9-6.7-2.9-11.8c0-5.2,1-9.1,2.9-11.8c2-2.7,4.6-4,8.1-4   c3.4,0,6.1,1.3,8.1,4s2.9,6.6,2.9,11.8c0,5.1-1,9.1-2.9,11.8C103.3,43.2,100.6,44.6,97.2,44.6z M97.2,41.4c2.1,0,3.9-1,5.3-3.1   s2-5.3,2-9.7c0-2.2-0.2-4.1-0.5-5.7c-0.4-1.6-0.9-2.9-1.5-3.9c-0.7-1-1.4-1.8-2.3-2.3c-1-0.5-1.9-0.7-3-0.7s-2,0.2-2.9,0.7   S92.6,17.9,92,19c-0.7,1-1.2,2.4-1.5,3.9c-0.4,1.6-0.5,3.5-0.5,5.7c0,4.4,0.7,7.6,2,9.7C93.3,40.4,95.1,41.4,97.2,41.4z M97.2,31.5   c-0.8,0-1.5-0.3-2.1-0.8c-0.6-0.6-0.9-1.4-0.9-2.4s0.3-1.8,0.9-2.3c0.6-0.6,1.3-0.8,2.1-0.8c0.8,0,1.5,0.3,2.1,0.8   c0.6,0.6,0.9,1.3,0.9,2.3s-0.3,1.8-0.9,2.4C98.7,31.2,98,31.5,97.2,31.5z"
   id="path3561"
   style="fill:#808080" />
	<path
   class="st0"
   d="M126,44.6c-3.4,0-6.1-1.4-8.1-4.2s-2.9-6.7-2.9-11.8c0-5.2,1-9.1,2.9-11.8c2-2.7,4.6-4,8.1-4   c3.4,0,6.1,1.3,8.1,4s2.9,6.6,2.9,11.8c0,5.1-1,9.1-2.9,11.8C132.1,43.2,129.4,44.6,126,44.6z M126,41.4c2.1,0,3.9-1,5.3-3.1   s2-5.3,2-9.7c0-2.2-0.2-4.1-0.5-5.7c-0.4-1.6-0.9-2.9-1.5-3.9c-0.7-1-1.4-1.8-2.3-2.3s-1.9-0.7-2.9-0.7c-1.1,0-2,0.2-2.9,0.7   s-1.7,1.2-2.3,2.3c-0.7,1-1.2,2.4-1.5,3.9c-0.4,1.6-0.5,3.5-0.5,5.7c0,4.4,0.7,7.6,2,9.7C122.1,40.4,123.9,41.4,126,41.4z    M126,31.5c-0.8,0-1.5-0.3-2.1-0.8c-0.6-0.6-0.9-1.4-0.9-2.4s0.3-1.8,0.9-2.3c0.6-0.6,1.3-0.8,2.1-0.8s1.5,0.3,2.1,0.8   c0.6,0.6,0.9,1.3,0.9,2.3s-0.3,1.8-0.9,2.4C127.5,31.2,126.8,31.5,126,31.5z"
   id="path3563"
   style="fill:#808080" />
	<path
   class="st0"
   d="M145.1,44v-3.3h8.8V18.2H147v-2.5c1.8-0.3,3.3-0.6,4.6-0.9c1.2-0.4,2.3-0.8,3.3-1.3h2.9v27.4h8v3.3h-20.7V44z"
   id="path3565"
   style="fill:#808080" />
	<path
   class="st0"
   d="M173.9,44v-3.3h8.8V18.2h-6.9v-2.5c1.8-0.3,3.3-0.6,4.6-0.9c1.2-0.4,2.3-0.8,3.3-1.3h2.9v27.4h8v3.3h-20.7   L173.9,44L173.9,44z"
   id="path3567"
   style="fill:#808080" />
	<path
   class="st0"
   d="M202.7,44v-3.3h8.8V18.2h-6.9v-2.5c1.8-0.3,3.3-0.6,4.6-0.9c1.2-0.4,2.3-0.8,3.3-1.3h2.9v27.4h8v3.3h-20.7   L202.7,44L202.7,44z"
   id="path3569"
   style="fill:#808080" />
	<path
   class="st0"
   d="M241.2,44.6c-3.4,0-6.1-1.4-8.1-4.2s-2.9-6.7-2.9-11.8c0-5.2,1-9.1,2.9-11.8c2-2.7,4.6-4,8.1-4   c3.4,0,6.1,1.3,8.1,4s2.9,6.6,2.9,11.8c0,5.1-1,9.1-2.9,11.8C247.3,43.2,244.6,44.6,241.2,44.6z M241.2,41.4c2.1,0,3.9-1,5.3-3.1   s2-5.3,2-9.7c0-2.2-0.2-4.1-0.5-5.7c-0.4-1.6-0.9-2.9-1.5-3.9c-0.7-1-1.4-1.8-2.3-2.3s-1.9-0.7-2.9-0.7c-1.1,0-2,0.2-2.9,0.7   s-1.7,1.2-2.3,2.3c-0.7,1-1.2,2.4-1.5,3.9c-0.4,1.6-0.5,3.5-0.5,5.7c0,4.4,0.7,7.6,2,9.7C237.3,40.4,239.1,41.4,241.2,41.4z    M241.2,31.5c-0.8,0-1.5-0.3-2.1-0.8c-0.6-0.6-0.9-1.4-0.9-2.4s0.3-1.8,0.9-2.3c0.6-0.6,1.3-0.8,2.1-0.8c0.8,0,1.5,0.3,2.1,0.8   c0.6,0.6,0.9,1.3,0.9,2.3s-0.3,1.8-0.9,2.4C242.7,31.2,242,31.5,241.2,31.5z"
   id="path3571"
   style="fill:#808080" />
	<path
   class="st0"
   d="M289.1,44v-3.3h8.8V18.2H291v-2.5c1.8-0.3,3.3-0.6,4.6-0.9c1.2-0.4,2.3-0.8,3.3-1.3h2.9v27.4h8v3.3h-20.7   L289.1,44L289.1,44z"
   id="path3573"
   style="fill:#808080" />
	<path
   class="st0"
   d="M327.6,44.6c-3.4,0-6.1-1.4-8.1-4.2s-2.9-6.7-2.9-11.8c0-5.2,1-9.1,2.9-11.8c2-2.7,4.6-4,8.1-4   c3.4,0,6.1,1.3,8.1,4s2.9,6.6,2.9,11.8c0,5.1-1,9.1-2.9,11.8C333.7,43.2,331,44.6,327.6,44.6z M327.6,41.4c2.1,0,3.9-1,5.3-3.1   s2-5.3,2-9.7c0-2.2-0.2-4.1-0.5-5.7c-0.4-1.6-0.9-2.9-1.5-3.9c-0.7-1-1.4-1.8-2.3-2.3s-1.9-0.7-2.9-0.7c-1.1,0-2,0.2-2.9,0.7   s-1.7,1.2-2.3,2.3c-0.7,1-1.2,2.4-1.5,3.9c-0.4,1.6-0.5,3.5-0.5,5.7c0,4.4,0.7,7.6,2,9.7S325.5,41.4,327.6,41.4z M327.6,31.5   c-0.8,0-1.5-0.3-2.1-0.8c-0.6-0.6-0.9-1.4-0.9-2.4s0.3-1.8,0.9-2.3c0.6-0.6,1.3-0.8,2.1-0.8s1.5,0.3,2.1,0.8   c0.6,0.6,0.9,1.3,0.9,2.3s-0.3,1.8-0.9,2.4C329.1,31.2,328.4,31.5,327.6,31.5z"
   id="path3575"
   style="fill:#808080" />
	<path
   class="st0"
   d="M356.4,44.6c-3.4,0-6.1-1.4-8.1-4.2s-2.9-6.7-2.9-11.8c0-5.2,1-9.1,2.9-11.8c2-2.7,4.6-4,8.1-4   c3.4,0,6.1,1.3,8.1,4s2.9,6.6,2.9,11.8c0,5.1-1,9.1-2.9,11.8C362.5,43.2,359.8,44.6,356.4,44.6z M356.4,41.4c2.1,0,3.9-1,5.3-3.1   s2-5.3,2-9.7c0-2.2-0.2-4.1-0.5-5.7c-0.4-1.6-0.9-2.9-1.5-3.9c-0.7-1-1.4-1.8-2.3-2.3s-1.9-0.7-2.9-0.7c-1.1,0-2,0.2-2.9,0.7   s-1.7,1.2-2.3,2.3c-0.7,1-1.2,2.4-1.5,3.9c-0.4,1.6-0.5,3.5-0.5,5.7c0,4.4,0.7,7.6,2,9.7S354.3,41.4,356.4,41.4z M356.4,31.5   c-0.8,0-1.5-0.3-2.1-0.8c-0.6-0.6-0.9-1.4-0.9-2.4s0.3-1.8,0.9-2.3c0.6-0.6,1.3-0.8,2.1-0.8c0.8,0,1.5,0.3,2.1,0.8   c0.6,0.6,0.9,1.3,0.9,2.3s-0.3,1.8-0.9,2.4C357.9,31.2,357.2,31.5,356.4,31.5z"
   id="path3577"
   style="fill:#808080" />
	<path
   class="st0"
   d="M375.5,44v-3.3h8.8V18.2h-6.9v-2.5c1.8-0.3,3.3-0.6,4.6-0.9c1.3-0.3,2.3-0.8,3.3-1.3h2.9v27.4h8v3.3h-20.7   L375.5,44L375.5,44z"
   id="path3579"
   style="fill:#808080" />
	<path
   class="st0"
   d="M414,44.6c-3.4,0-6.1-1.4-8.1-4.2s-2.9-6.7-2.9-11.8c0-5.2,1-9.1,2.9-11.8c2-2.7,4.6-4,8.1-4   c3.4,0,6.1,1.3,8.1,4s2.9,6.6,2.9,11.8c0,5.1-1,9.1-2.9,11.8C420.1,43.2,417.4,44.6,414,44.6z M414,41.4c2.1,0,3.9-1,5.3-3.1   s2-5.3,2-9.7c0-2.2-0.2-4.1-0.5-5.7c-0.4-1.6-0.9-2.9-1.5-3.9c-0.7-1-1.4-1.8-2.3-2.3s-1.9-0.7-2.9-0.7c-1.1,0-2,0.2-2.9,0.7   s-1.7,1.2-2.3,2.3c-0.7,1-1.2,2.4-1.5,3.9c-0.4,1.6-0.5,3.5-0.5,5.7c0,4.4,0.7,7.6,2,9.7S411.8,41.4,414,41.4z M414,31.5   c-0.8,0-1.5-0.3-2.1-0.8c-0.6-0.6-0.9-1.4-0.9-2.4s0.3-1.8,0.9-2.3c0.6-0.6,1.3-0.8,2.1-0.8c0.8,0,1.5,0.3,2.1,0.8   c0.6,0.6,0.9,1.3,0.9,2.3s-0.3,1.8-0.9,2.4C415.5,31.2,414.8,31.5,414,31.5z"
   id="path3581"
   style="fill:#808080" />
	<path
   class="st0"
   d="M433,44v-3.3h8.8V18.2h-6.9v-2.5c1.8-0.3,3.3-0.6,4.6-0.9c1.3-0.3,2.3-0.8,3.3-1.3h2.9v27.4h8v3.3H433V44z"
   id="path3583"
   style="fill:#808080" />
	<path
   class="st0"
   d="M471.6,44.6c-3.4,0-6.1-1.4-8.1-4.2s-2.9-6.7-2.9-11.8c0-5.2,1-9.1,2.9-11.8c2-2.7,4.6-4,8.1-4   c3.4,0,6.1,1.3,8.1,4s2.9,6.6,2.9,11.8c0,5.1-1,9.1-2.9,11.8C477.7,43.2,475,44.6,471.6,44.6z M471.6,41.4c2.1,0,3.9-1,5.3-3.1   s2-5.3,2-9.7c0-2.2-0.2-4.1-0.5-5.7c-0.4-1.6-0.9-2.9-1.5-3.9c-0.7-1-1.4-1.8-2.3-2.3s-1.9-0.7-2.9-0.7c-1.1,0-2,0.2-2.9,0.7   s-1.7,1.2-2.3,2.3c-0.7,1-1.2,2.4-1.5,3.9c-0.4,1.6-0.5,3.5-0.5,5.7c0,4.4,0.7,7.6,2,9.7S469.4,41.4,471.6,41.4z M471.6,31.5   c-0.8,0-1.5-0.3-2.1-0.8c-0.6-0.6-0.9-1.4-0.9-2.4s0.3-1.8,0.9-2.3c0.6-0.6,1.3-0.8,2.1-0.8s1.5,0.3,2.1,0.8   c0.6,0.6,0.9,1.3,0.9,2.3s-0.3,1.8-0.9,2.4C473.1,31.2,472.4,31.5,471.6,31.5z"
   id="path3585"
   style="fill:#808080" />
	<path
   class="st0"
   d="M500.4,44.6c-3.4,0-6.1-1.4-8.1-4.2s-2.9-6.7-2.9-11.8c0-5.2,1-9.1,2.9-11.8c2-2.7,4.6-4,8.1-4   c3.4,0,6.1,1.3,8.1,4s2.9,6.6,2.9,11.8c0,5.1-1,9.1-2.9,11.8C506.5,43.2,503.8,44.6,500.4,44.6z M500.4,41.4c2.1,0,3.9-1,5.3-3.1   c1.4-2.1,2-5.3,2-9.7c0-2.2-0.2-4.1-0.5-5.7c-0.4-1.6-0.9-2.9-1.5-3.9c-0.7-1-1.4-1.8-2.3-2.3c-0.9-0.5-1.9-0.7-2.9-0.7   c-1.1,0-2,0.2-2.9,0.7s-1.7,1.2-2.3,2.3c-0.7,1-1.2,2.4-1.5,3.9c-0.4,1.6-0.5,3.5-0.5,5.7c0,4.4,0.7,7.6,2,9.7   S498.2,41.4,500.4,41.4z M500.4,31.5c-0.8,0-1.5-0.3-2.1-0.8c-0.6-0.6-0.9-1.4-0.9-2.4s0.3-1.8,0.9-2.3c0.6-0.6,1.3-0.8,2.1-0.8   s1.5,0.3,2.1,0.8c0.6,0.6,0.9,1.3,0.9,2.3s-0.3,1.8-0.9,2.4C501.9,31.2,501.2,31.5,500.4,31.5z"
   id="path3587"
   style="fill:#808080" />
</g>
</svg>