<?xml version="1.0" encoding="utf-8"?>
<!-- Generator: Adobe Illustrator 23.0.1, SVG Export Plug-In . SVG Version: 6.00 Build 0)  -->
<svg version="1.1" id="Layer_1" xmlns="http://www.w3.org/2000/svg" xmlns:xlink="http://www.w3.org/1999/xlink" x="0px" y="0px"
	 viewBox="0 0 604.1 426.3" style="enable-background:new 0 0 604.1 426.3;" xml:space="preserve">
<style type="text/css">
	.st0{fill:#FFFFFF;}
</style>
<g transform="translate(0.000000,630.000000) scale(0.100000,-0.100000)">
	<path class="st0" d="M1363.3,6247.2c-119-56-208-183-253-362c-27-106-37-373-19-484c16-101,61-236,120-361l48-102l-620-831
		c-344-461-617-835-612-840c11-10,2979-1190,2994-1190s2983,1180,2994,1190c5,5-268,379-612,840l-621,832l39,78
		c52,104,115,288,130,383c19,116,8,379-20,487c-48,182-133,304-252,360c-58,28-72,30-173,30c-90,0-122-5-178-24
		c-163-58-324-211-417-396c-12-25-24-46-25-48c-2-2-20,5-42,16c-97,49-341,115-548,148c-148,24-402,24-550,0c-207-33-451-99-548-148
		c-22-11-40-18-42-16c-1,2-13,23-25,48c-93,185-254,338-417,396c-56,19-88,24-178,24C1435.3,6277.2,1421.3,6275.2,1363.3,6247.2z
		 M1371.3,6047.2c-72-142-79-303-22-458c52-140,174-354,265-465l23-27l91,59c239,158,472,251,686,276l57,6l24-53
		c13-29,96-215,184-413s184-412,213-475c51-109,53-120,57-212c4-79,0-110-18-170c-32-106-85-200-142-254l-50-47l-29,54
		c-43,77-121,152-193,185c-81,37-217,45-333,19c-197-43-400-128-553-230c-100-66-250-198-250-218c1-14,829-641,837-633
		c3,2-19,35-49,73c-30,37-67,86-84,107l-29,40l96-52c53-29,101-52,108-52c6,0-7,30-29,66l-41,66l90-48c85-46,90-48,117-34
		c78,42,215,209,302,369l38,69l85-273l86-274l-30-12c-17-7-54-36-83-65c-153-153-115-403,77-509c49-27,62-30,149-30s100,3,149,30
		c220,122,228,432,15,559l-50,30l85,272l85,273l37-69c88-161,225-328,303-370c27-14,32-12,117,34l90,48l-41-66c-22-36-35-66-29-66
		c7,0,55,23,108,52l96,52l-29-40c-17-21-54-70-84-107c-30-38-52-71-49-73c8-8,836,619,836,633c1,20-149,152-249,218
		c-224,150-529,251-728,243c-83-3-107-8-162-34c-76-36-142-100-187-180l-31-57l-52,49c-38,35-63,73-95,139c-55,113-69,179-63,291
		l4,89l132,290c72,160,178,396,235,525l103,235l55-3c186-8,448-111,691-272l92-60l23,27c91,111,213,325,265,465
		c57,156,50,315-23,460l-31,63l51-49c28-28,66-79,85-115c123-235,83-529-129-939l-64-124l389-509l389-508l-127-3l-127-3l136-105
		l137-105l-125-11c-68-7-127-15-130-18s18-17,48-30s138-62,241-109l188-84l-92-7c-50-3-144-6-210-6c-65,0-118-4-118-9s17-16,38-24
		c20-8,59-25,86-37l49-22l-107-35c-58-19-106-37-106-42c0-4,52-14,116-22l116-14l-1163-445c-640-245-1175-445-1189-445
		s-549,200-1189,445l-1163,445l116,14c64,8,116,18,116,22c0,5-48,23-106,42l-107,35l49,22c27,12,66,29,87,37c20,8,37,19,37,24
		s-53,9-118,9c-66,0-160,3-210,6l-92,7l188,84c103,47,211,96,241,109s51,27,48,30s-62,11-130,18l-125,11l137,105l136,105l-127,3
		l-127,3l388,508l389,508l-82,164c-80,160-143,334-167,454c-28,144-9,315,49,435c22,45,124,170,138,170
		C1399.3,6107.2,1388.3,6080.2,1371.3,6047.2z M2430.3,3977.2c146-74,146-283,1-358c-63-32-151-28-207,11c-164,113-85,367,114,367
		C2372.3,3997.2,2406.3,3990.2,2430.3,3977.2z M3779.3,3976.2c77-38,122-133,103-219c-20-89-88-151-176-158c-229-19-314,274-110,381
		C3640.3,4004.2,3726.3,4001.2,3779.3,3976.2z"/>
</g>
</svg>
